<svg xmlns="http://www.w3.org/2000/svg" xmlns:xlink="http://www.w3.org/1999/xlink" width="134.731" height="37.572" viewBox="0 0 134.731 37.572">
    <path data-name="Path 13282" d="M-21.065 0h.8v-5.91l2.48 3.61h.04l2.48-3.59V0h.8v-7.45h-.7l-2.6 3.78-2.6-3.78h-.7zm10.3.12a2.469 2.469 0 0 0 1.12-.25 1.915 1.915 0 0 0 .76-.64V0h.75v-3.68a1.717 1.717 0 0 0-.255-.935 1.752 1.752 0 0 0-.71-.635 2.285 2.285 0 0 0-1.045-.23 2.359 2.359 0 0 0-.87.165 2.572 2.572 0 0 0-.745.445 1.758 1.758 0 0 0-.475.62l.68.37A1.509 1.509 0 0 1-11-4.515a1.522 1.522 0 0 1 .86-.245 1.349 1.349 0 0 1 .91.3.979.979 0 0 1 .35.78v.28l-1.94.32a2.166 2.166 0 0 0-1.3.61 1.571 1.571 0 0 0-.41 1.08 1.359 1.359 0 0 0 .23.78 1.575 1.575 0 0 0 .63.535 2.05 2.05 0 0 0 .91.2zm-.97-1.54a.9.9 0 0 1 .255-.64 1.467 1.467 0 0 1 .835-.37l1.76-.29v.4a1.753 1.753 0 0 1-.23.89 1.7 1.7 0 0 1-.64.635 1.9 1.9 0 0 1-.96.235 1.074 1.074 0 0 1-.735-.25.782.782 0 0 1-.285-.61zm8.06 1.54a2.513 2.513 0 0 0 1.14-.26 2.026 2.026 0 0 0 .82-.73V0h.75v-7.57h-.75v3.02a2.362 2.362 0 0 0-.83-.68 2.492 2.492 0 0 0-1.13-.25 2.539 2.539 0 0 0-1.355.365 2.621 2.621 0 0 0-.94.995 2.949 2.949 0 0 0-.345 1.44 2.957 2.957 0 0 0 .345 1.435 2.6 2.6 0 0 0 .945 1 2.546 2.546 0 0 0 1.35.365zm.04-.75A1.761 1.761 0 0 1-4.6-.9a1.9 1.9 0 0 1-.67-.735 2.207 2.207 0 0 1-.245-1.045 2.2 2.2 0 0 1 .245-1.05 1.9 1.9 0 0 1 .675-.73 1.768 1.768 0 0 1 .96-.27 1.811 1.811 0 0 1 .975.27 1.953 1.953 0 0 1 .69.735 2.137 2.137 0 0 1 .255 1.045 2.137 2.137 0 0 1-.255 1.045 1.953 1.953 0 0 1-.69.735 1.811 1.811 0 0 1-.975.27zm7.15.75A2.645 2.645 0 0 0 4.52-.065a2.568 2.568 0 0 0 .78-.49 2.032 2.032 0 0 0 .5-.665l-.64-.34a2.249 2.249 0 0 1-.65.7 1.684 1.684 0 0 1-.99.28 1.845 1.845 0 0 1-.9-.23 1.867 1.867 0 0 1-.685-.645 1.938 1.938 0 0 1-.285-1h4.22q.02-.13.03-.255t.01-.225a2.651 2.651 0 0 0-.17-.935 2.63 2.63 0 0 0-.49-.82 2.356 2.356 0 0 0-.775-.58 2.394 2.394 0 0 0-1.04-.21 2.458 2.458 0 0 0-1.315.36 2.581 2.581 0 0 0-.925.985A2.955 2.955 0 0 0 .855-2.7a2.972 2.972 0 0 0 .35 1.45 2.614 2.614 0 0 0 .955 1 2.572 2.572 0 0 0 1.355.37zm-.08-4.9a1.66 1.66 0 0 1 .825.21 1.628 1.628 0 0 1 .6.57 1.645 1.645 0 0 1 .24.85H1.665a1.874 1.874 0 0 1 .315-.865 1.776 1.776 0 0 1 .635-.565 1.734 1.734 0 0 1 .82-.2zm6.6 4.78h3.14A2.447 2.447 0 0 0 14.9-.585a2.049 2.049 0 0 0 .635-1.585 2 2 0 0 0-.3-1.08 2.053 2.053 0 0 0-.845-.76 1.7 1.7 0 0 0 .85-1.57 1.754 1.754 0 0 0-.56-1.355 2.144 2.144 0 0 0-1.51-.515h-3.13zm.8-4.3v-2.4H13.1a1.489 1.489 0 0 1 .965.3 1.035 1.035 0 0 1 .365.855 1.192 1.192 0 0 1-.365.9 1.336 1.336 0 0 1-.965.35zm0 3.55v-2.83h2.34a1.626 1.626 0 0 1 1.135.38 1.328 1.328 0 0 1 .425 1.035 1.309 1.309 0 0 1-.425 1.035 1.653 1.653 0 0 1-1.135.375zm6.63 2.95a1.764 1.764 0 0 0 .9-.215 1.918 1.918 0 0 0 .615-.565 3.806 3.806 0 0 0 .4-.74l2.45-6.05H21L19.255-.94 17.5-5.37h-.81L18.835 0l-.19.46a2.032 2.032 0 0 1-.51.785 1.189 1.189 0 0 1-.75.2 1.975 1.975 0 0 1-.315-.025q-.155-.025-.255-.035v.7a1.611 1.611 0 0 0 .325.085 2.167 2.167 0 0 0 .325.03z" transform="translate(67.069 7.57)" style="fill:rgba(255,255,255,.5)"/>
    <g data-name="wrteam_logo">
        <text x="25" y="34" font-family="Arial, sans-serif" font-size="15" fill="#fff">Bissow.com</text>
    </g>
</svg>