<svg xmlns="http://www.w3.org/2000/svg" width="150.059" height="180" viewBox="0 0 150.059 180">
  <g id="mainlogo" transform="translate(-0.004 15)">
    <path id="back" d="M115.724,4.568l12.222,1.248a34.989,34.989,0,0,1,31.262,31.248l1.247,12.219a283.607,283.607,0,0,1,0,57.638l-1.247,12.216a34.993,34.993,0,0,1-31.262,31.25l-12.222,1.245a283.83,283.83,0,0,1-57.661,0L45.84,150.388a34.991,34.991,0,0,1-31.261-31.25l-1.248-12.216a283.757,283.757,0,0,1,0-57.638l1.248-12.219A34.988,34.988,0,0,1,45.84,5.816L58.062,4.568a283.838,283.838,0,0,1,57.662,0Z" transform="translate(-11.86 -3.1)" fill="#fff" fill-rule="evenodd"/>
    <g id="mainlogo-2" data-name="mainlogo" transform="translate(24.03 5.998)">
      <rect id="logoback" width="102" height="102" fill="none"/>
      <g id="logo" transform="translate(25.12 14.121)">
        <g id="logo" transform="translate(-10 10.121)">
          <rect id="back-2" data-name="back" width="102" height="102" transform="translate(-36.12 -4.121)" fill="none"/>
          <path d="M36.929 34.225q-1.032-.472-2.899-.492h-7.143v7.736h7.045q1.888 0 2.938-.512 1.907-.946 1.907-3.623 0-2.263-1.848-3.109m.079-6.014q1.178-.719 1.179-2.55 0-2.028-1.558-2.677-1.344-.454-3.43-.453h-6.313v6.397h7.053q1.89 0 3.069-.717" fill="#00b2ca"/>
          <path d="M32 2C15.432 2 2 15.432 2 32s13.432 30 30 30 30-13.432 30-30S48.568 2 32 2m11.607 40.374a8 8 0 0 1-2.055 2.283q-1.39 1.063-3.279 1.457-1.888.394-4.1.394H21.1V17.492h14.023q5.306.078 7.52 3.09 1.332 1.85 1.332 4.43 0 2.657-1.344 4.271-.751.905-2.214 1.653 2.222.808 3.353 2.56 1.13 1.752 1.13 4.252 0 2.579-1.293 4.626" fill="#00b2ca"/>
        </g>
      </g>
    </g>
    <text x="70.029" y="125" font-family="Montserrat, sans-serif" font-size="28" font-weight="700" fill="#00b2ca" text-anchor="middle">Bissow</text>
  </g>
</svg>